<?xml version="1.0" standalone="no"?>
<!DOCTYPE svg PUBLIC "-//W3C//DTD SVG 20010904//EN"
 "http://www.w3.org/TR/2001/REC-SVG-20010904/DTD/svg10.dtd">
<svg version="1.0" xmlns="http://www.w3.org/2000/svg"
 width="256.000000pt" height="256.000000pt" viewBox="0 0 256.000000 256.000000"
 preserveAspectRatio="xMidYMid meet">
<metadata>
Created by potrace 1.14, written by Peter Selinger 2001-2017
</metadata>
<g transform="translate(0.000000,256.000000) scale(0.100000,-0.100000)"
fill="#000000" stroke="none">
<path d="M671 2483 c-1 -7 -12 -13 -26 -13 -14 0 -25 -6 -25 -12 0 -9 -4 -8
-10 2 -6 10 -10 11 -10 3 0 -7 -7 -13 -15 -13 -8 0 -15 -5 -15 -11 0 -6 -5 -9
-12 -7 -6 2 -22 -6 -36 -19 -13 -12 -29 -20 -35 -16 -6 3 -7 1 -3 -5 4 -7 2
-12 -4 -12 -6 0 -8 -4 -5 -10 3 -5 -1 -10 -9 -10 -9 0 -16 -5 -16 -11 0 -7 -7
-17 -15 -23 -8 -6 -17 -22 -20 -35 -2 -14 -8 -27 -12 -30 -5 -3 -9 -10 -9 -16
-13 -90 -13 -116 -2 -109 9 6 9 3 -1 -9 -8 -11 -9 -17 -3 -17 7 0 9 -7 5 -17
-5 -12 -3 -14 8 -8 12 8 12 6 0 -8 -9 -11 -10 -17 -2 -17 6 0 11 -9 11 -20 0
-11 5 -20 12 -20 6 0 8 -3 5 -7 -4 -3 -1 -13 6 -21 10 -13 9 -14 -3 -8 -8 4
-4 -1 9 -12 13 -11 21 -24 17 -31 -4 -6 -1 -11 8 -11 9 0 16 -4 16 -9 0 -14
57 -71 64 -64 3 3 6 -1 6 -10 0 -16 12 -22 33 -18 5 1 6 -3 2 -9 -3 -5 1 -10
10 -10 9 0 13 -4 10 -10 -3 -5 1 -10 9 -10 9 0 16 -5 16 -11 0 -5 5 -7 10 -4
6 3 10 1 10 -5 0 -6 5 -8 10 -5 6 3 10 1 10 -4 0 -6 7 -11 15 -11 8 0 15 -4
15 -10 0 -5 8 -10 18 -10 10 0 28 -9 40 -20 12 -11 23 -20 24 -19 8 5 78 -26
78 -35 0 -5 3 -7 6 -3 10 10 64 -14 64 -29 0 -8 6 -13 13 -11 6 1 12 -7 12
-18 0 -11 4 -26 9 -34 7 -11 6 -12 -5 -6 -11 7 -11 5 1 -10 16 -19 16 -21 -3
-44 -8 -10 -8 -13 -1 -8 8 4 11 -14 12 -58 0 -36 3 -69 7 -75 3 -5 0 -10 -7
-10 -10 0 -10 -2 1 -9 10 -6 10 -10 1 -16 -8 -5 -9 -10 -2 -14 18 -11 -15 -43
-46 -46 -16 -1 -34 -5 -40 -9 -7 -4 -12 -1 -12 6 0 9 -3 9 -10 -2 -5 -8 -10
-10 -10 -5 0 6 -19 11 -42 13 -23 1 -49 8 -57 15 -11 9 -13 9 -8 0 5 -7 -4 -6
-23 3 -16 9 -34 23 -40 32 -7 13 -9 14 -10 3 0 -11 -4 -9 -14 4 -8 11 -12 24
-9 29 3 4 -1 12 -8 17 -8 5 -9 9 -3 9 6 0 12 11 12 25 0 14 -6 25 -12 25 -6 0
-6 4 2 9 11 7 10 9 -3 15 -9 3 -14 10 -10 16 3 5 -1 22 -10 37 -9 16 -13 19
-10 8 7 -24 -4 -14 -19 17 -6 13 -26 27 -44 33 -17 5 -32 13 -32 18 0 4 -5 5
-10 2 -6 -4 -18 -1 -27 7 -12 9 -15 9 -9 1 4 -7 2 -13 -3 -13 -6 0 -11 5 -11
11 0 8 -5 8 -15 -1 -12 -10 -15 -10 -15 1 0 12 -2 12 -9 0 -5 -7 -13 -11 -19
-7 -6 3 -14 1 -17 -5 -4 -5 -13 -8 -21 -5 -8 3 -14 1 -14 -5 0 -6 -5 -7 -10
-4 -6 3 -10 1 -10 -4 0 -6 -6 -11 -13 -11 -7 0 -22 -7 -33 -16 -10 -8 -12 -13
-4 -9 8 4 3 -3 -13 -15 -15 -12 -25 -26 -21 -31 3 -5 1 -9 -4 -9 -6 0 -13 -7
-16 -16 -4 -10 -2 -13 7 -9 6 4 4 0 -6 -8 -14 -11 -15 -16 -5 -20 11 -4 11 -6
0 -6 -7 -1 -10 -5 -7 -11 3 -5 1 -10 -5 -10 -6 0 -8 -5 -5 -10 4 -6 12 -7 18
-3 7 4 6 0 -2 -10 -7 -9 -10 -17 -6 -17 4 0 3 -6 -4 -13 -7 -9 -7 -17 -1 -23
6 -6 11 -22 12 -37 1 -15 6 -27 10 -27 4 0 5 -7 2 -15 -4 -9 0 -15 7 -15 11 0
11 -2 -1 -10 -12 -8 -12 -10 3 -16 9 -3 14 -10 11 -15 -3 -5 -1 -9 5 -9 6 0 8
-8 4 -17 -3 -10 -3 -15 2 -11 7 7 35 -14 35 -28 0 -9 41 -44 52 -44 5 0 6 -4
3 -10 -3 -5 -1 -10 5 -10 11 0 24 -9 63 -46 13 -11 31 -20 40 -18 9 1 15 -2
11 -7 -3 -5 0 -9 6 -9 6 0 18 -7 27 -15 8 -8 19 -13 24 -10 5 4 9 1 9 -4 0 -6
9 -11 20 -11 12 0 20 -7 20 -17 0 -15 2 -16 10 -3 7 11 10 11 10 2 0 -7 4 -11
9 -7 5 3 12 1 16 -5 4 -6 11 -8 16 -4 5 3 16 0 24 -6 8 -7 15 -9 15 -5 0 4 8
1 17 -6 15 -12 16 -12 8 1 -6 12 -5 12 5 3 7 -6 19 -9 28 -6 9 4 13 2 9 -4 -4
-7 8 -9 33 -7 21 2 42 -1 45 -6 4 -7 13 -6 25 0 10 6 21 6 24 2 4 -7 51 -8 51
-2 0 3 65 10 108 12 15 1 27 6 27 11 0 5 7 7 15 3 8 -3 15 -1 15 4 0 6 5 10
11 10 5 0 7 -6 3 -12 -5 -8 -1 -7 10 2 10 8 23 15 30 16 25 3 85 42 78 49 -4
5 2 5 13 1 11 -4 17 -4 13 -1 -7 8 27 45 42 45 5 0 9 3 8 8 -4 11 26 72 35 72
5 0 5 4 2 10 -3 5 -2 10 3 10 5 0 13 15 17 33 4 17 9 37 11 42 18 58 25 179
11 208 -5 11 -3 17 5 17 8 0 9 3 3 8 -5 4 -10 42 -10 85 1 46 -3 77 -10 77 -6
0 -7 3 0 8 14 10 17 32 4 32 -6 0 -9 9 -6 20 3 11 1 20 -4 20 -5 0 -9 5 -9 11
0 6 6 7 13 2 6 -4 4 5 -5 19 -11 17 -14 29 -8 33 6 4 8 11 4 16 -3 5 -9 7 -14
4 -5 -3 -7 4 -5 16 2 11 -3 32 -11 45 -9 12 -13 28 -10 33 4 6 -3 15 -14 21
-11 6 -20 17 -20 25 0 8 -7 15 -16 15 -8 0 -12 5 -9 10 3 6 -1 10 -10 10 -8 0
-20 10 -25 23 -5 13 -9 16 -10 7 -1 -9 -5 -6 -10 7 -6 14 -15 21 -23 17 -8 -3
-21 2 -30 10 -9 9 -19 16 -24 16 -16 0 -63 25 -63 33 0 5 -4 6 -8 3 -5 -3 -21
2 -36 10 -16 7 -34 14 -41 14 -7 0 -18 6 -24 14 -17 21 4 30 23 10 9 -9 16
-11 16 -4 0 6 5 8 10 5 6 -4 7 -11 4 -17 -4 -7 -2 -8 5 -4 19 12 61 14 55 4
-4 -6 2 -8 12 -6 11 2 25 -3 32 -12 8 -8 11 -9 7 -2 -10 20 23 14 38 -8 8 -11
16 -17 20 -14 3 3 16 -2 29 -10 14 -9 28 -13 33 -9 4 5 5 0 2 -10 -5 -13 -3
-16 6 -10 17 11 37 13 37 3 0 -10 20 -8 38 3 6 5 12 4 12 -2 0 -6 7 -8 15 -5
8 4 13 9 10 13 -2 4 1 8 8 9 33 3 52 11 50 21 -2 6 0 10 5 10 19 -3 33 2 27
11 -3 5 6 17 20 26 17 11 23 20 16 27 -6 6 -5 15 5 24 12 12 12 18 2 31 -8 9
-8 13 -2 9 7 -4 14 2 17 14 3 13 0 22 -10 26 -12 5 -12 7 -1 14 10 7 11 9 0 9
-7 0 -10 5 -7 11 4 6 -1 17 -11 25 -11 9 -13 13 -7 9 8 -4 11 -1 7 9 -3 8 -12
17 -20 20 -8 3 -14 13 -14 21 0 9 -4 13 -10 10 -5 -3 -10 1 -10 9 0 15 -12 21
-33 17 -5 -1 -6 3 -2 8 3 6 -4 15 -16 21 -17 10 -20 9 -14 -2 3 -7 -1 -4 -10
7 -9 11 -18 19 -20 18 -13 -4 -44 11 -39 19 4 6 -3 5 -15 -1 -15 -9 -21 -9
-21 -1 0 6 -10 10 -22 9 -13 -2 -30 1 -38 6 -8 5 -26 11 -40 12 -14 2 -31 4
-37 5 -7 1 -13 6 -13 11 0 5 -6 4 -14 -2 -9 -8 -15 -8 -18 -2 -1 6 -18 11 -35
13 -18 1 -33 7 -33 13 0 6 -3 7 -8 0 -9 -13 -32 -17 -32 -6 0 12 -43 8 -52 -4
-5 -6 -8 -5 -8 2 0 13 -26 13 -46 0 -6 -3 -14 -3 -18 1 -12 11 -70 9 -78 -3
-5 -6 -8 -5 -8 4 0 11 -3 11 -15 1 -12 -10 -15 -10 -15 0 0 10 -3 10 -14 1
-11 -9 -15 -9 -19 1 -4 10 -6 10 -6 1z"/>
<path d="M2335 2400 c-4 -6 -13 -9 -21 -6 -8 3 -14 1 -14 -5 0 -6 -4 -8 -9 -4
-5 3 -13 0 -16 -6 -4 -5 -13 -8 -21 -5 -8 3 -14 -1 -14 -11 0 -9 -3 -14 -6
-10 -9 8 -33 -16 -26 -27 3 -5 -3 -6 -14 -2 -10 4 -15 4 -11 0 4 -4 -1 -13
-11 -21 -11 -10 -12 -12 -2 -8 10 4 9 2 -2 -8 -10 -8 -18 -19 -18 -24 0 -11
-32 -43 -43 -43 -3 0 -3 7 0 17 4 11 3 14 -5 9 -8 -5 -12 0 -12 13 0 11 -12
27 -29 37 -17 10 -28 21 -25 26 3 4 -4 8 -15 8 -12 0 -21 4 -21 10 0 5 -7 7
-15 4 -9 -4 -15 0 -15 7 0 11 -3 11 -10 -1 -5 -8 -10 -10 -10 -5 0 14 -53 13
-62 0 -5 -6 -8 -4 -8 4 0 11 -4 9 -15 -5 -10 -13 -14 -15 -15 -5 0 9 -7 6 -20
-9 -11 -13 -20 -20 -20 -16 0 10 -34 -25 -53 -57 -10 -15 -23 -25 -29 -21 -7
4 -8 3 -4 -5 4 -6 2 -18 -4 -26 -7 -8 -9 -15 -4 -15 4 0 0 -6 -11 -13 -10 -8
-15 -19 -11 -25 4 -7 2 -12 -5 -12 -7 0 -9 -3 -6 -7 4 -3 1 -13 -6 -21 -10
-13 -9 -14 3 -7 13 7 13 6 2 -7 -7 -9 -15 -26 -17 -39 -3 -12 -10 -26 -17 -31
-10 -6 -9 -8 2 -8 12 0 13 -2 1 -9 -7 -5 -11 -13 -7 -19 3 -6 1 -12 -5 -14 -5
-2 -11 -18 -11 -36 -1 -18 -5 -35 -9 -38 -5 -2 -5 -12 -2 -21 4 -9 2 -14 -3
-10 -6 3 -9 -9 -9 -29 1 -19 -2 -34 -7 -34 -5 0 -6 -4 -3 -10 3 -5 2 -10 -3
-10 -5 0 -8 -14 -7 -30 1 -19 -4 -34 -14 -40 -14 -8 -14 -9 -1 -10 11 0 12 -3
3 -8 -10 -6 -18 -34 -22 -75 -1 -5 -7 -5 -13 -1 -8 5 -8 1 1 -10 11 -13 12
-19 3 -25 -6 -3 -12 -24 -14 -45 -1 -20 -6 -40 -10 -42 -5 -3 -5 -10 -2 -16 4
-6 0 -14 -7 -19 -11 -7 -11 -9 -1 -9 7 0 10 -5 6 -11 -4 -6 -8 -23 -10 -38 -2
-14 -6 -46 -10 -71 -16 -115 -8 -236 20 -292 9 -17 13 -34 10 -39 -3 -5 -2 -8
3 -7 4 2 9 -1 10 -7 1 -5 11 -13 23 -17 13 -5 18 -13 14 -19 -4 -8 -3 -9 4 -5
7 4 12 2 12 -4 0 -6 5 -8 10 -5 6 3 10 1 10 -4 0 -6 5 -11 11 -11 5 0 7 6 4
13 -4 6 -1 5 7 -4 7 -9 19 -14 27 -11 10 3 11 0 5 -9 -7 -12 -5 -12 9 0 14 11
17 11 17 0 0 -11 2 -11 10 1 9 13 10 13 10 0 0 -13 1 -13 10 0 8 12 10 12 10
1 0 -11 3 -11 15 -1 8 6 19 9 25 5 5 -3 10 0 10 7 0 9 3 9 10 -2 7 -12 10 -12
10 -1 0 7 6 11 14 8 8 -3 17 1 20 9 3 9 10 12 16 9 5 -3 10 -1 10 5 0 7 7 9
16 6 9 -3 12 -2 9 4 -4 6 7 15 24 21 17 6 29 15 26 19 -5 9 18 20 41 20 8 0
14 -5 14 -11 0 -5 -5 -7 -11 -3 -8 5 -8 1 0 -13 7 -14 7 -23 -1 -31 -9 -9 -9
-12 0 -12 7 0 12 -11 12 -25 0 -14 5 -25 11 -25 6 0 8 -7 5 -16 -4 -10 -2 -13
6 -8 8 5 9 2 5 -9 -5 -12 -1 -17 13 -17 11 0 20 -7 20 -16 0 -8 5 -12 10 -9 6
3 10 -1 10 -10 0 -9 4 -14 9 -10 5 3 17 -2 25 -11 12 -11 16 -12 16 -2 0 10 2
10 9 -1 6 -8 16 -11 31 -6 15 5 20 3 16 -3 -4 -8 4 -8 26 0 18 5 39 10 46 11
6 0 12 4 12 9 0 5 4 7 9 3 6 -3 15 4 21 15 6 11 16 18 21 14 6 -3 13 3 16 15
3 11 10 18 15 15 5 -3 8 3 6 13 -2 11 3 27 11 36 7 10 14 28 14 42 0 16 4 22
11 18 7 -4 6 -1 -1 8 -10 12 -10 18 0 29 10 10 9 11 -3 5 -13 -8 -13 -7 -1 8
7 9 9 17 4 17 -5 0 -10 7 -10 15 0 8 5 15 11 15 7 0 7 3 1 8 -15 10 -16 84 -1
75 6 -4 5 1 -3 10 -10 13 -11 20 -2 30 6 8 7 17 3 21 -11 12 -10 140 2 148 8
5 7 8 -1 8 -7 0 -13 11 -13 25 0 14 6 25 13 25 8 0 9 3 1 8 -6 4 -11 16 -11
27 0 11 5 23 11 27 8 5 7 8 -1 8 -7 0 -13 11 -13 25 0 14 6 25 13 25 8 0 8 3
2 8 -10 6 -11 20 -5 40 1 4 2 10 1 15 -1 4 5 23 13 41 8 19 12 37 8 40 -3 3 0
6 7 6 7 0 9 5 6 10 -3 6 0 10 7 10 9 0 9 3 -2 10 -10 6 -11 10 -2 10 6 0 12 9
12 20 0 11 5 20 12 20 6 0 8 3 5 7 -4 3 0 17 9 31 9 13 11 21 5 18 -7 -5 -9
-1 -5 8 3 9 9 14 13 12 4 -3 8 4 9 15 4 43 6 49 14 49 5 0 7 4 3 9 -3 5 -1 12
5 16 6 4 8 11 5 16 -4 5 -1 9 5 9 6 0 9 4 5 9 -3 5 2 16 10 25 9 9 11 17 5 21
-6 4 -5 12 4 21 8 8 13 23 11 34 -2 11 0 20 4 20 14 0 6 156 -9 176 -12 15
-12 16 -1 9 9 -5 7 2 -5 18 -10 15 -25 27 -32 27 -7 0 -11 4 -7 9 5 9 -30 35
-48 36 -4 0 -12 7 -17 15 -9 13 -10 13 -10 0 0 -13 -1 -13 -10 0 -5 8 -10 11
-10 6 0 -5 -7 -3 -15 4 -12 10 -15 10 -15 0 0 -10 -3 -10 -14 -1 -10 9 -16 9
-21 1z"/>
<path d="M286 593 c-6 -6 -18 -9 -63 -15 -7 -1 -15 -8 -17 -15 -3 -8 -10 -12
-15 -9 -5 3 -16 -6 -26 -20 -10 -16 -22 -23 -32 -20 -13 5 -14 4 -4 -8 7 -8 8
-15 2 -18 -5 -1 -11 -10 -13 -18 -2 -8 -10 -21 -18 -28 -13 -12 -13 -13 0 -6
13 7 13 5 1 -9 -11 -14 -11 -17 0 -17 11 0 11 -2 -1 -10 -12 -8 -12 -10 -1
-10 11 0 11 -3 0 -17 -8 -9 -9 -14 -3 -10 7 4 14 0 17 -8 4 -10 1 -12 -11 -9
-12 4 -10 -1 7 -15 14 -13 18 -21 10 -21 -10 0 -11 -2 -2 -8 6 -4 13 -14 15
-22 3 -15 64 -61 85 -64 7 -1 16 -6 20 -11 4 -4 1 -5 -7 0 -12 7 -13 6 -2 -6
11 -12 14 -12 22 1 7 11 10 12 10 2 0 -8 6 -12 13 -9 6 2 22 0 35 -4 13 -5 22
-5 22 2 0 6 7 6 20 -1 11 -6 20 -7 20 -3 0 10 41 10 57 0 7 -4 14 -3 18 3 4 6
12 7 18 3 19 -11 47 -11 47 1 0 6 5 4 10 -4 5 -8 10 -10 10 -5 0 6 24 10 52
10 29 0 56 -4 60 -10 5 -7 8 -6 8 1 0 7 17 8 50 4 33 -4 50 -3 50 4 0 6 5 4
10 -4 7 -11 10 -11 10 -2 0 10 5 10 20 2 14 -8 20 -8 20 0 0 8 6 8 20 0 15 -8
20 -8 20 2 0 9 3 9 10 -2 9 -13 10 -13 10 0 0 13 1 13 10 0 7 -11 10 -11 10
-2 0 10 5 10 20 2 15 -8 20 -8 20 2 0 9 3 9 10 -2 5 -8 10 -10 10 -5 0 6 20
10 45 10 25 0 45 -4 45 -10 0 -7 3 -7 8 0 4 6 39 10 77 10 39 0 73 -4 77 -10
5 -6 8 -6 8 1 0 8 13 9 40 4 22 -4 40 -3 40 2 0 5 9 4 20 -2 15 -8 20 -8 20 2
0 9 3 9 10 -2 9 -13 10 -13 10 0 0 13 1 13 10 0 7 -11 10 -11 10 -2 0 10 5 10
20 2 15 -8 20 -8 20 2 0 9 3 9 10 -2 7 -11 10 -11 10 -2 0 10 5 10 20 2 15 -8
20 -8 20 2 0 9 3 9 10 -2 5 -8 10 -10 10 -5 0 6 24 10 52 10 29 0 56 -4 60
-10 5 -7 8 -6 8 1 0 7 17 8 50 4 33 -4 50 -3 50 4 0 6 5 4 10 -4 7 -11 10 -11
10 -2 0 10 5 10 20 2 14 -8 20 -8 20 0 0 8 6 8 20 0 15 -8 20 -8 20 2 0 9 3 9
10 -2 9 -13 10 -13 10 0 0 13 1 13 10 0 7 -11 10 -11 10 -2 0 10 5 10 20 2 15
-8 20 -8 20 2 0 9 3 9 10 -2 5 -8 10 -10 10 -5 0 6 20 10 45 10 25 0 45 -4 45
-10 0 -7 3 -7 8 0 4 6 39 10 77 10 39 0 73 -4 77 -10 5 -6 8 -6 8 1 0 8 13 9
40 4 22 -4 40 -3 40 2 0 5 9 4 20 -2 11 -6 20 -7 20 -2 0 5 14 8 30 6 17 -2
30 1 30 6 0 5 6 7 14 4 7 -3 16 2 20 11 3 10 13 15 20 12 18 -7 71 37 62 52
-4 6 -2 9 6 6 9 -4 14 3 15 16 1 12 6 25 10 28 13 9 13 121 1 121 -6 0 -8 9
-5 20 3 11 1 18 -3 15 -5 -3 -11 4 -15 15 -4 11 -11 18 -16 15 -5 -4 -9 4 -9
16 0 12 -3 20 -6 16 -3 -3 -16 3 -27 14 -15 14 -23 16 -28 7 -6 -9 -9 -9 -14
3 -7 18 -45 23 -46 6 0 -7 -4 -3 -9 8 -5 11 -9 15 -9 9 -1 -8 -14 -9 -41 -4
-22 4 -40 3 -40 -2 0 -5 -9 -4 -20 2 -14 8 -20 8 -20 0 0 -6 -5 -8 -11 -4 -14
8 -124 8 -138 -1 -6 -3 -11 0 -11 7 0 10 -2 10 -9 -1 -7 -11 -10 -11 -15 0 -5
11 -7 11 -12 1 -5 -10 -9 -10 -20 -1 -11 9 -14 9 -14 0 0 -7 -5 -9 -11 -5 -18
11 -89 10 -93 -1 -3 -5 -5 -4 -5 3 -1 9 -6 10 -20 3 -10 -6 -21 -8 -24 -5 -10
10 -107 9 -107 -1 0 -7 -3 -7 -8 0 -9 13 -42 16 -42 3 0 -5 -5 -6 -11 -2 -18
11 -99 10 -99 -1 0 -7 -3 -7 -8 0 -9 13 -42 16 -42 3 0 -5 -5 -6 -11 -2 -18
11 -99 10 -103 -1 -3 -5 -5 -4 -5 3 -1 9 -6 10 -20 3 -10 -6 -21 -8 -24 -5 -9
10 -57 12 -57 2 0 -5 -9 -4 -20 2 -14 8 -20 8 -20 0 0 -6 -5 -8 -11 -4 -14 8
-124 8 -138 -1 -6 -3 -11 0 -11 7 0 10 -2 10 -9 -1 -7 -11 -10 -11 -15 0 -5
11 -7 11 -12 2 -4 -9 -11 -10 -25 -3 -13 8 -19 7 -19 0 0 -6 -5 -8 -11 -4 -14
8 -124 8 -138 -1 -6 -3 -11 0 -11 7 0 10 -2 10 -9 -1 -7 -11 -10 -11 -15 0 -5
11 -7 11 -12 2 -4 -9 -11 -10 -25 -3 -13 8 -19 7 -19 0 0 -6 -5 -8 -11 -4 -14
8 -124 8 -138 -1 -6 -3 -11 0 -11 7 0 9 -3 9 -10 -2 -5 -8 -10 -10 -10 -5 0 6
-13 10 -30 10 -16 0 -30 -4 -30 -8 0 -5 -5 -5 -11 -2 -14 9 -167 10 -176 2 -3
-4 -11 -2 -18 3 -7 5 -15 7 -19 3z"/>
<path d="M2390 210 c0 -5 5 -10 11 -10 5 0 7 5 4 10 -3 6 -8 10 -11 10 -2 0
-4 -4 -4 -10z"/>
</g>
</svg>
